<svg width="733" height="702" viewBox="0 0 733 702" fill="none" xmlns="http://www.w3.org/2000/svg">
<g filter="url(#filter0_f_546_312)">
<path d="M326.298 580.58L52.2064 358.201L51.0301 354.672L59.2646 309.961L88.6735 292.312L96.908 293.488L103.966 286.429H107.495L109.848 287.605H121.611L125.141 285.252H145.139C152.667 292.782 160.039 287.605 162.784 284.075V278.192L188.664 266.426L202.78 255.837H213.367L220.425 244.071L214.544 237.011V234.658L219.249 227.598V221.715L223.954 219.362H241.6V213.479L245.129 207.596H276.891L281.596 211.126H289.83C291.791 211.518 294.771 210.89 291.007 205.243C290.066 202.419 290.615 201.713 291.007 201.713L296.889 198.183V195.83C296.889 194.889 289.046 186.025 285.125 181.711V171.121V165.238L287.478 159.355L283.949 155.825V152.295L285.125 149.942L286.301 147.589V145.236V132.293L282.772 127.587V119.35L273.361 109.937L274.538 108.761H289.83C291.713 108.761 306.299 97.7792 313.358 92.2883C313.75 91.5039 315.24 89.9351 318.063 89.9351C321.592 89.9351 321.592 93.465 322.768 93.465C323.945 93.465 326.298 92.2883 327.474 89.9351C328.415 88.0526 329.434 88.3663 329.827 88.7585L333.356 93.465H338.061C339.943 93.465 343.551 85.6209 345.119 81.6989L382.763 68.7562H405.113C405.506 68.7562 406.76 69.2268 408.642 71.1094C410.525 72.992 412.564 72.6782 413.348 72.286L427.464 65.2264H480.4C481.577 66.7952 484.635 70.1681 487.458 71.1094C490.282 72.0507 494.124 71.5016 495.693 71.1094L501.575 67.5796H513.338L514.515 66.403L522.749 61.6965L525.102 60.5197L534.513 66.4026L543.923 66.403C544.708 64.8341 546.747 61.461 548.629 60.5197C550.511 59.5784 553.334 60.1275 554.511 60.5197C558.04 63.6574 565.333 70.1679 566.274 71.1092C567.215 72.0505 571.372 68.3636 573.332 66.4026C577.097 65.4613 580.391 66.0104 581.567 66.4026C582.743 66.7948 585.567 67.8145 587.449 68.7558C589.331 69.6971 581.175 77.7764 576.861 81.6985L581.567 84.0517V87.5815L580.391 88.7581L575.685 95.8178V107.584L579.214 112.29V119.35L576.861 126.41V135.822L572.156 144.059H569.803V146.412H562.745L559.216 148.765V153.472L550.982 158.178V173.474L552.158 175.827V182.887C560.628 185.711 569.019 193.476 572.156 197.006V209.949L587.449 221.715L590.978 228.774L593.33 229.951V233.481V238.187H595.683V244.07H598.036V246.424V252.307V259.366H600.389V266.426H602.741V271.132V278.192L599.212 282.898V288.781L614.505 321.726V347.612V360.555V374.674C614.505 382.91 613.329 380.557 610.976 388.793C609.094 395.382 610.976 403.305 612.152 406.442V420.561L601.565 429.974V439.387L613.329 458.213V474.685L619.21 480.568H621.563H629.797L639.208 487.628L649.796 489.981V497.041L658.03 513.513C610.584 541.36 515.691 597.523 515.691 599.406C515.691 601.288 488.243 621.369 474.518 631.174L389.821 650C385.115 642.47 387.86 628.037 389.821 621.761L372.175 611.172L363.941 614.702C363 604.348 347.864 600.19 340.414 599.406L339.237 593.523L327.474 591.17L326.298 588.816V580.58Z" stroke="#8B5CF6" style="mix-blend-mode:hard-light" stroke-width="2"/>
</g>
<g filter="url(#filter1_f_546_312)">
<path d="M326.298 580.58L52.2064 358.201L51.0301 354.672L59.2646 309.961L88.6735 292.312L96.908 293.488L103.966 286.429H107.495L109.848 287.605H121.611L125.141 285.252H145.139C152.667 292.782 160.039 287.605 162.784 284.075V278.192L188.664 266.426L202.78 255.837H213.367L220.425 244.071L214.544 237.011V234.658L219.249 227.598V221.715L223.954 219.362H241.6V213.479L245.129 207.596H276.891L281.596 211.126H289.83C291.791 211.518 294.771 210.89 291.007 205.243C290.066 202.419 290.615 201.713 291.007 201.713L296.889 198.183V195.83C296.889 194.889 289.046 186.025 285.125 181.711V171.121V165.238L287.478 159.355L283.949 155.825V152.295L285.125 149.942L286.301 147.589V145.236V132.293L282.772 127.587V119.35L273.361 109.937L274.538 108.761H289.83C291.713 108.761 306.299 97.7792 313.358 92.2883C313.75 91.5039 315.24 89.9351 318.063 89.9351C321.592 89.9351 321.592 93.465 322.768 93.465C323.945 93.465 326.298 92.2883 327.474 89.9351C328.415 88.0526 329.434 88.3663 329.827 88.7585L333.356 93.465H338.061C339.943 93.465 343.551 85.6209 345.119 81.6989L382.763 68.7562H405.113C405.506 68.7562 406.76 69.2268 408.642 71.1094C410.525 72.992 412.564 72.6782 413.348 72.286L427.464 65.2264H480.4C481.577 66.7952 484.635 70.1681 487.458 71.1094C490.282 72.0507 494.124 71.5016 495.693 71.1094L501.575 67.5796H513.338L514.515 66.403L522.749 61.6965L525.102 60.5197L534.513 66.4026L543.923 66.403C544.708 64.8341 546.747 61.461 548.629 60.5197C550.511 59.5784 553.334 60.1275 554.511 60.5197C558.04 63.6574 565.333 70.1679 566.274 71.1092C567.215 72.0505 571.372 68.3636 573.332 66.4026C577.097 65.4613 580.391 66.0104 581.567 66.4026C582.743 66.7948 585.567 67.8145 587.449 68.7558C589.331 69.6971 581.175 77.7764 576.861 81.6985L581.567 84.0517V87.5815L580.391 88.7581L575.685 95.8178V107.584L579.214 112.29V119.35L576.861 126.41V135.822L572.156 144.059H569.803V146.412H562.745L559.216 148.765V153.472L550.982 158.178V173.474L552.158 175.827V182.887C560.628 185.711 569.019 193.476 572.156 197.006V209.949L587.449 221.715L590.978 228.774L593.33 229.951V233.481V238.187H595.683V244.07H598.036V246.424V252.307V259.366H600.389V266.426H602.741V271.132V278.192L599.212 282.898V288.781L614.505 321.726V347.612V360.555V374.674C614.505 382.91 613.329 380.557 610.976 388.793C609.094 395.382 610.976 403.305 612.152 406.442V420.561L601.565 429.974V439.387L613.329 458.213V474.685L619.21 480.568H621.563H629.797L639.208 487.628L649.796 489.981V497.041L658.03 513.513C610.584 541.36 515.691 597.523 515.691 599.406C515.691 601.288 488.243 621.369 474.518 631.174L389.821 650C385.115 642.47 387.86 628.037 389.821 621.761L372.175 611.172L363.941 614.702C363 604.348 347.864 600.19 340.414 599.406L339.237 593.523L327.474 591.17L326.298 588.816V580.58Z" stroke="#8B5CF6" style="mix-blend-mode:hard-light" stroke-width="2"/>
</g>
<g filter="url(#filter2_f_546_312)">
<path d="M326.298 580.58L52.2064 358.201L51.0301 354.672L59.2646 309.961L88.6735 292.312L96.908 293.488L103.966 286.429H107.495L109.848 287.605H121.611L125.141 285.252H145.139C152.667 292.782 160.039 287.605 162.784 284.075V278.192L188.664 266.426L202.78 255.837H213.367L220.425 244.071L214.544 237.011V234.658L219.249 227.598V221.715L223.954 219.362H241.6V213.479L245.129 207.596H276.891L281.596 211.126H289.83C291.791 211.518 294.771 210.89 291.007 205.243C290.066 202.419 290.615 201.713 291.007 201.713L296.889 198.183V195.83C296.889 194.889 289.046 186.025 285.125 181.711V171.121V165.238L287.478 159.355L283.949 155.825V152.295L285.125 149.942L286.301 147.589V145.236V132.293L282.772 127.587V119.35L273.361 109.937L274.538 108.761H289.83C291.713 108.761 306.299 97.7792 313.358 92.2883C313.75 91.5039 315.24 89.9351 318.063 89.9351C321.592 89.9351 321.592 93.465 322.768 93.465C323.945 93.465 326.298 92.2883 327.474 89.9351C328.415 88.0526 329.434 88.3663 329.827 88.7585L333.356 93.465H338.061C339.943 93.465 343.551 85.6209 345.119 81.6989L382.763 68.7562H405.113C405.506 68.7562 406.76 69.2268 408.642 71.1094C410.525 72.992 412.564 72.6782 413.348 72.286L427.464 65.2264H480.4C481.577 66.7952 484.635 70.1681 487.458 71.1094C490.282 72.0507 494.124 71.5016 495.693 71.1094L501.575 67.5796H513.338L514.515 66.403L522.749 61.6965L525.102 60.5197L534.513 66.4026L543.923 66.403C544.708 64.8341 546.747 61.461 548.629 60.5197C550.511 59.5784 553.334 60.1275 554.511 60.5197C558.04 63.6574 565.333 70.1679 566.274 71.1092C567.215 72.0505 571.372 68.3636 573.332 66.4026C577.097 65.4613 580.391 66.0104 581.567 66.4026C582.743 66.7948 585.567 67.8145 587.449 68.7558C589.331 69.6971 581.175 77.7764 576.861 81.6985L581.567 84.0517V87.5815L580.391 88.7581L575.685 95.8178V107.584L579.214 112.29V119.35L576.861 126.41V135.822L572.156 144.059H569.803V146.412H562.745L559.216 148.765V153.472L550.982 158.178V173.474L552.158 175.827V182.887C560.628 185.711 569.019 193.476 572.156 197.006V209.949L587.449 221.715L590.978 228.774L593.33 229.951V233.481V238.187H595.683V244.07H598.036V246.424V252.307V259.366H600.389V266.426H602.741V271.132V278.192L599.212 282.898V288.781L614.505 321.726V347.612V360.555V374.674C614.505 382.91 613.329 380.557 610.976 388.793C609.094 395.382 610.976 403.305 612.152 406.442V420.561L601.565 429.974V439.387L613.329 458.213V474.685L619.21 480.568H621.563H629.797L639.208 487.628L649.796 489.981V497.041L658.03 513.513C610.584 541.36 515.691 597.523 515.691 599.406C515.691 601.288 488.243 621.369 474.518 631.174L389.821 650C385.115 642.47 387.86 628.037 389.821 621.761L372.175 611.172L363.941 614.702C363 604.348 347.864 600.19 340.414 599.406L339.237 593.523L327.474 591.17L326.298 588.816V580.58Z" stroke="#8B5CF6" style="mix-blend-mode:hard-light" stroke-width="2"/>
</g>
<g filter="url(#filter3_f_546_312)">
<path d="M326.298 580.58L52.2064 358.201L51.0301 354.672L59.2646 309.961L88.6735 292.312L96.908 293.488L103.966 286.429H107.495L109.848 287.605H121.611L125.141 285.252H145.139C152.667 292.782 160.039 287.605 162.784 284.075V278.192L188.664 266.426L202.78 255.837H213.367L220.425 244.071L214.544 237.011V234.658L219.249 227.598V221.715L223.954 219.362H241.6V213.479L245.129 207.596H276.891L281.596 211.126H289.83C291.791 211.518 294.771 210.89 291.007 205.243C290.066 202.419 290.615 201.713 291.007 201.713L296.889 198.183V195.83C296.889 194.889 289.046 186.025 285.125 181.711V171.121V165.238L287.478 159.355L283.949 155.825V152.295L285.125 149.942L286.301 147.589V145.236V132.293L282.772 127.587V119.35L273.361 109.937L274.538 108.761H289.83C291.713 108.761 306.299 97.7792 313.358 92.2883C313.75 91.5039 315.24 89.9351 318.063 89.9351C321.592 89.9351 321.592 93.465 322.768 93.465C323.945 93.465 326.298 92.2883 327.474 89.9351C328.415 88.0526 329.434 88.3663 329.827 88.7585L333.356 93.465H338.061C339.943 93.465 343.551 85.6209 345.119 81.6989L382.763 68.7562H405.113C405.506 68.7562 406.76 69.2268 408.642 71.1094C410.525 72.992 412.564 72.6782 413.348 72.286L427.464 65.2264H480.4C481.577 66.7952 484.635 70.1681 487.458 71.1094C490.282 72.0507 494.124 71.5016 495.693 71.1094L501.575 67.5796H513.338L514.515 66.403L522.749 61.6965L525.102 60.5197L534.513 66.4026L543.923 66.403C544.708 64.8341 546.747 61.461 548.629 60.5197C550.511 59.5784 553.334 60.1275 554.511 60.5197C558.04 63.6574 565.333 70.1679 566.274 71.1092C567.215 72.0505 571.372 68.3636 573.332 66.4026C577.097 65.4613 580.391 66.0104 581.567 66.4026C582.743 66.7948 585.567 67.8145 587.449 68.7558C589.331 69.6971 581.175 77.7764 576.861 81.6985L581.567 84.0517V87.5815L580.391 88.7581L575.685 95.8178V107.584L579.214 112.29V119.35L576.861 126.41V135.822L572.156 144.059H569.803V146.412H562.745L559.216 148.765V153.472L550.982 158.178V173.474L552.158 175.827V182.887C560.628 185.711 569.019 193.476 572.156 197.006V209.949L587.449 221.715L590.978 228.774L593.33 229.951V233.481V238.187H595.683V244.07H598.036V246.424V252.307V259.366H600.389V266.426H602.741V271.132V278.192L599.212 282.898V288.781L614.505 321.726V347.612V360.555V374.674C614.505 382.91 613.329 380.557 610.976 388.793C609.094 395.382 610.976 403.305 612.152 406.442V420.561L601.565 429.974V439.387L613.329 458.213V474.685L619.21 480.568H621.563H629.797L639.208 487.628L649.796 489.981V497.041L658.03 513.513C610.584 541.36 515.691 597.523 515.691 599.406C515.691 601.288 488.243 621.369 474.518 631.174L389.821 650C385.115 642.47 387.86 628.037 389.821 621.761L372.175 611.172L363.941 614.702C363 604.348 347.864 600.19 340.414 599.406L339.237 593.523L327.474 591.17L326.298 588.816V580.58Z" stroke="#8B5CF6" style="mix-blend-mode:hard-light" stroke-width="2"/>
</g>
<path d="M326.298 580.58L52.2064 358.201L51.0301 354.672L59.2646 309.961L88.6735 292.312L96.908 293.488L103.966 286.429H107.495L109.848 287.605H121.611L125.141 285.252H145.139C152.667 292.782 160.039 287.605 162.784 284.075V278.192L188.664 266.426L202.78 255.837H213.367L220.425 244.071L214.544 237.011V234.658L219.249 227.598V221.715L223.954 219.362H241.6V213.479L245.129 207.596H276.891L281.596 211.126H289.83C291.791 211.518 294.771 210.89 291.007 205.243C290.066 202.419 290.615 201.713 291.007 201.713L296.889 198.183V195.83C296.889 194.889 289.046 186.025 285.125 181.711V171.121V165.238L287.478 159.355L283.949 155.825V152.295L285.125 149.942L286.301 147.589V145.236V132.293L282.772 127.587V119.35L273.361 109.937L274.538 108.761H289.83C291.713 108.761 306.299 97.7792 313.358 92.2883C313.75 91.5039 315.24 89.9351 318.063 89.9351C321.592 89.9351 321.592 93.465 322.768 93.465C323.945 93.465 326.298 92.2883 327.474 89.9351C328.415 88.0526 329.434 88.3663 329.827 88.7585L333.356 93.465H338.061C339.943 93.465 343.551 85.6209 345.119 81.6989L382.763 68.7562H405.113C405.506 68.7562 406.76 69.2268 408.642 71.1094C410.525 72.992 412.564 72.6782 413.348 72.286L427.464 65.2264H480.4C481.577 66.7952 484.635 70.1681 487.458 71.1094C490.282 72.0507 494.124 71.5016 495.693 71.1094L501.575 67.5796H513.338L514.515 66.403L522.749 61.6965L525.102 60.5197L534.513 66.4026L543.923 66.403C544.708 64.8341 546.747 61.461 548.629 60.5197C550.511 59.5784 553.334 60.1275 554.511 60.5197C558.04 63.6574 565.333 70.1679 566.274 71.1092C567.215 72.0505 571.372 68.3636 573.332 66.4026C577.097 65.4613 580.391 66.0104 581.567 66.4026C582.743 66.7948 585.567 67.8145 587.449 68.7558C589.331 69.6971 581.175 77.7764 576.861 81.6985L581.567 84.0517V87.5815L580.391 88.7581L575.685 95.8178V107.584L579.214 112.29V119.35L576.861 126.41V135.822L572.156 144.059H569.803V146.412H562.745L559.216 148.765V153.472L550.982 158.178V173.474L552.158 175.827V182.887C560.628 185.711 569.019 193.476 572.156 197.006V209.949L587.449 221.715L590.978 228.774L593.33 229.951V233.481V238.187H595.683V244.07H598.036V246.424V252.307V259.366H600.389V266.426H602.741V271.132V278.192L599.212 282.898V288.781L614.505 321.726V347.612V360.555V374.674C614.505 382.91 613.329 380.557 610.976 388.793C609.094 395.382 610.976 403.305 612.152 406.442V420.561L601.565 429.974V439.387L613.329 458.213V474.685L619.21 480.568H621.563H629.797L639.208 487.628L649.796 489.981V497.041L658.03 513.513C610.584 541.36 515.691 597.523 515.691 599.406C515.691 601.288 488.243 621.369 474.518 631.174L389.821 650C385.115 642.47 387.86 628.037 389.821 621.761L372.175 611.172L363.941 614.702C363 604.348 347.864 600.19 340.414 599.406L339.237 593.523L327.474 591.17L326.298 588.816V580.58Z" stroke="#C5AEFB" style="mix-blend-mode:hard-light" stroke-width="2"/>
<defs>
<filter id="filter0_f_546_312" x="0" y="9" width="709.343" height="692.13" filterUnits="userSpaceOnUse" color-interpolation-filters="sRGB">
<feFlood flood-opacity="0" result="BackgroundImageFix"/>
<feBlend mode="normal" in="SourceGraphic" in2="BackgroundImageFix" result="shape"/>
<feGaussianBlur stdDeviation="25" result="effect1_foregroundBlur_546_312"/>
</filter>
<filter id="filter1_f_546_312" x="25" y="34" width="659.343" height="642.13" filterUnits="userSpaceOnUse" color-interpolation-filters="sRGB">
<feFlood flood-opacity="0" result="BackgroundImageFix"/>
<feBlend mode="normal" in="SourceGraphic" in2="BackgroundImageFix" result="shape"/>
<feGaussianBlur stdDeviation="12.5" result="effect1_foregroundBlur_546_312"/>
</filter>
<filter id="filter2_f_546_312" x="35" y="44" width="639.343" height="622.13" filterUnits="userSpaceOnUse" color-interpolation-filters="sRGB">
<feFlood flood-opacity="0" result="BackgroundImageFix"/>
<feBlend mode="normal" in="SourceGraphic" in2="BackgroundImageFix" result="shape"/>
<feGaussianBlur stdDeviation="7.5" result="effect1_foregroundBlur_546_312"/>
</filter>
<filter id="filter3_f_546_312" x="40" y="49" width="629.343" height="612.13" filterUnits="userSpaceOnUse" color-interpolation-filters="sRGB">
<feFlood flood-opacity="0" result="BackgroundImageFix"/>
<feBlend mode="normal" in="SourceGraphic" in2="BackgroundImageFix" result="shape"/>
<feGaussianBlur stdDeviation="5" result="effect1_foregroundBlur_546_312"/>
</filter>
</defs>
</svg>
