<svg width="467" height="457" viewBox="0 0 467 457" fill="none" xmlns="http://www.w3.org/2000/svg">
<g filter="url(#filter0_f_236_165)">
<path d="M216.1 363.348L51.7355 229.921L51.03 227.803L55.968 200.976L73.6037 190.387L78.5417 191.093L82.7742 186.857H84.8905L86.3014 187.563H93.3556L95.4719 186.151H107.464C111.979 190.669 116.4 187.563 118.046 185.445V181.915L133.565 174.856L142.03 168.502H148.379L152.611 161.442L149.084 157.207V155.795L151.906 151.559V148.029L154.728 146.617H165.309V143.087L167.425 139.558H186.472L189.294 141.675H194.232C195.407 141.911 197.194 141.534 194.937 138.146C194.373 136.451 194.702 136.028 194.937 136.028L198.464 133.91V132.498C198.464 131.933 193.761 126.615 191.41 124.026V117.673V114.143L192.821 110.613L190.704 108.495V106.377L191.41 104.965L192.115 103.553V102.141V94.3758L189.999 91.5519V86.6102L184.356 80.9625L185.061 80.2565H194.232C195.36 80.2565 204.108 73.6675 208.34 70.373C208.575 69.9024 209.469 68.9611 211.162 68.9611C213.278 68.9611 213.278 71.079 213.984 71.079C214.689 71.079 216.1 70.373 216.805 68.9611C217.37 67.8315 217.981 68.0198 218.216 68.2551L220.332 71.079H223.154C224.283 71.079 226.446 66.3725 227.387 64.0193L249.96 56.2537H263.363C263.599 56.2537 264.351 56.5361 265.48 57.6656C266.608 58.7952 267.831 58.6069 268.301 58.3716L276.766 54.1358H308.511C309.216 55.0771 311.05 57.1009 312.743 57.6656C314.436 58.2304 316.741 57.901 317.681 57.6656L321.208 55.5477H328.263L328.968 54.8418L333.906 52.0179L335.317 51.3118L340.96 54.8415L346.604 54.8418C347.074 53.9005 348.297 51.8766 349.425 51.3118C350.554 50.7471 352.247 51.0765 352.953 51.3118C355.069 53.1944 359.442 57.1007 360.007 57.6655C360.571 58.2303 363.064 56.0182 364.239 54.8415C366.497 54.2768 368.472 54.6062 369.177 54.8415C369.883 55.0769 371.576 55.6887 372.704 56.2535C373.833 56.8182 368.942 61.6659 366.356 64.0191L369.177 65.431V67.5489L368.472 68.2549L365.65 72.4907V79.5503L367.766 82.3742V86.61L366.356 90.8457V96.4935L363.534 101.435H362.123V102.847H357.89L355.774 104.259V107.083L350.836 109.907V119.084L351.542 120.496V124.732C356.621 126.426 361.653 131.086 363.534 133.204V140.969L372.704 148.029L374.821 152.265L376.232 152.971V155.089V157.912H377.642V161.442H379.053V162.854V166.384V170.62H380.464V174.856H381.875V177.679V181.915L379.759 184.739V188.269L388.929 208.036V223.567V231.333V239.804C388.929 244.746 388.224 243.334 386.813 248.276C385.684 252.229 386.813 256.983 387.518 258.865V267.337L381.17 272.985V278.632L388.224 289.928V299.811L391.751 303.341H393.162H398.1L403.743 307.577L410.092 308.989V313.225L415.03 323.108C386.578 339.816 329.673 373.514 329.673 374.644C329.673 375.773 313.213 387.822 304.984 393.705L254.193 405C251.371 400.482 253.017 391.822 254.193 388.057L243.611 381.703L238.673 383.821C238.109 377.609 229.033 375.114 224.565 374.644L223.859 371.114L216.805 369.702L216.1 368.29V363.348Z" stroke="#8B5CF6" style="mix-blend-mode:hard-light" stroke-width="2"/>
</g>
<g filter="url(#filter1_f_236_165)">
<path d="M216.1 363.348L51.7355 229.921L51.03 227.803L55.968 200.976L73.6037 190.387L78.5417 191.093L82.7742 186.857H84.8905L86.3014 187.563H93.3556L95.4719 186.151H107.464C111.979 190.669 116.4 187.563 118.046 185.445V181.915L133.565 174.856L142.03 168.502H148.379L152.611 161.442L149.084 157.207V155.795L151.906 151.559V148.029L154.728 146.617H165.309V143.087L167.425 139.558H186.472L189.294 141.675H194.232C195.407 141.911 197.194 141.534 194.937 138.146C194.373 136.451 194.702 136.028 194.937 136.028L198.464 133.91V132.498C198.464 131.933 193.761 126.615 191.41 124.026V117.673V114.143L192.821 110.613L190.704 108.495V106.377L191.41 104.965L192.115 103.553V102.141V94.3758L189.999 91.5519V86.6102L184.356 80.9625L185.061 80.2565H194.232C195.36 80.2565 204.108 73.6675 208.34 70.373C208.575 69.9024 209.469 68.9611 211.162 68.9611C213.278 68.9611 213.278 71.079 213.984 71.079C214.689 71.079 216.1 70.373 216.805 68.9611C217.37 67.8315 217.981 68.0198 218.216 68.2551L220.332 71.079H223.154C224.283 71.079 226.446 66.3725 227.387 64.0193L249.96 56.2537H263.363C263.599 56.2537 264.351 56.5361 265.48 57.6656C266.608 58.7952 267.831 58.6069 268.301 58.3716L276.766 54.1358H308.511C309.216 55.0771 311.05 57.1009 312.743 57.6656C314.436 58.2304 316.741 57.901 317.681 57.6656L321.208 55.5477H328.263L328.968 54.8418L333.906 52.0179L335.317 51.3118L340.96 54.8415L346.604 54.8418C347.074 53.9005 348.297 51.8766 349.425 51.3118C350.554 50.7471 352.247 51.0765 352.953 51.3118C355.069 53.1944 359.442 57.1007 360.007 57.6655C360.571 58.2303 363.064 56.0182 364.239 54.8415C366.497 54.2768 368.472 54.6062 369.177 54.8415C369.883 55.0769 371.576 55.6887 372.704 56.2535C373.833 56.8182 368.942 61.6659 366.356 64.0191L369.177 65.431V67.5489L368.472 68.2549L365.65 72.4907V79.5503L367.766 82.3742V86.61L366.356 90.8457V96.4935L363.534 101.435H362.123V102.847H357.89L355.774 104.259V107.083L350.836 109.907V119.084L351.542 120.496V124.732C356.621 126.426 361.653 131.086 363.534 133.204V140.969L372.704 148.029L374.821 152.265L376.232 152.971V155.089V157.912H377.642V161.442H379.053V162.854V166.384V170.62H380.464V174.856H381.875V177.679V181.915L379.759 184.739V188.269L388.929 208.036V223.567V231.333V239.804C388.929 244.746 388.224 243.334 386.813 248.276C385.684 252.229 386.813 256.983 387.518 258.865V267.337L381.17 272.985V278.632L388.224 289.928V299.811L391.751 303.341H393.162H398.1L403.743 307.577L410.092 308.989V313.225L415.03 323.108C386.578 339.816 329.673 373.514 329.673 374.644C329.673 375.773 313.213 387.822 304.984 393.705L254.193 405C251.371 400.482 253.017 391.822 254.193 388.057L243.611 381.703L238.673 383.821C238.109 377.609 229.033 375.114 224.565 374.644L223.859 371.114L216.805 369.702L216.1 368.29V363.348Z" stroke="#8B5CF6" style="mix-blend-mode:hard-light" stroke-width="2"/>
</g>
<g filter="url(#filter2_f_236_165)">
<path d="M216.1 363.348L51.7355 229.921L51.03 227.803L55.968 200.976L73.6037 190.387L78.5417 191.093L82.7742 186.857H84.8905L86.3014 187.563H93.3556L95.4719 186.151H107.464C111.979 190.669 116.4 187.563 118.046 185.445V181.915L133.565 174.856L142.03 168.502H148.379L152.611 161.442L149.084 157.207V155.795L151.906 151.559V148.029L154.728 146.617H165.309V143.087L167.425 139.558H186.472L189.294 141.675H194.232C195.407 141.911 197.194 141.534 194.937 138.146C194.373 136.451 194.702 136.028 194.937 136.028L198.464 133.91V132.498C198.464 131.933 193.761 126.615 191.41 124.026V117.673V114.143L192.821 110.613L190.704 108.495V106.377L191.41 104.965L192.115 103.553V102.141V94.3758L189.999 91.5519V86.6102L184.356 80.9625L185.061 80.2565H194.232C195.36 80.2565 204.108 73.6675 208.34 70.373C208.575 69.9024 209.469 68.9611 211.162 68.9611C213.278 68.9611 213.278 71.079 213.984 71.079C214.689 71.079 216.1 70.373 216.805 68.9611C217.37 67.8315 217.981 68.0198 218.216 68.2551L220.332 71.079H223.154C224.283 71.079 226.446 66.3725 227.387 64.0193L249.96 56.2537H263.363C263.599 56.2537 264.351 56.5361 265.48 57.6656C266.608 58.7952 267.831 58.6069 268.301 58.3716L276.766 54.1358H308.511C309.216 55.0771 311.05 57.1009 312.743 57.6656C314.436 58.2304 316.741 57.901 317.681 57.6656L321.208 55.5477H328.263L328.968 54.8418L333.906 52.0179L335.317 51.3118L340.96 54.8415L346.604 54.8418C347.074 53.9005 348.297 51.8766 349.425 51.3118C350.554 50.7471 352.247 51.0765 352.953 51.3118C355.069 53.1944 359.442 57.1007 360.007 57.6655C360.571 58.2303 363.064 56.0182 364.239 54.8415C366.497 54.2768 368.472 54.6062 369.177 54.8415C369.883 55.0769 371.576 55.6887 372.704 56.2535C373.833 56.8182 368.942 61.6659 366.356 64.0191L369.177 65.431V67.5489L368.472 68.2549L365.65 72.4907V79.5503L367.766 82.3742V86.61L366.356 90.8457V96.4935L363.534 101.435H362.123V102.847H357.89L355.774 104.259V107.083L350.836 109.907V119.084L351.542 120.496V124.732C356.621 126.426 361.653 131.086 363.534 133.204V140.969L372.704 148.029L374.821 152.265L376.232 152.971V155.089V157.912H377.642V161.442H379.053V162.854V166.384V170.62H380.464V174.856H381.875V177.679V181.915L379.759 184.739V188.269L388.929 208.036V223.567V231.333V239.804C388.929 244.746 388.224 243.334 386.813 248.276C385.684 252.229 386.813 256.983 387.518 258.865V267.337L381.17 272.985V278.632L388.224 289.928V299.811L391.751 303.341H393.162H398.1L403.743 307.577L410.092 308.989V313.225L415.03 323.108C386.578 339.816 329.673 373.514 329.673 374.644C329.673 375.773 313.213 387.822 304.984 393.705L254.193 405C251.371 400.482 253.017 391.822 254.193 388.057L243.611 381.703L238.673 383.821C238.109 377.609 229.033 375.114 224.565 374.644L223.859 371.114L216.805 369.702L216.1 368.29V363.348Z" stroke="#8B5CF6" style="mix-blend-mode:hard-light" stroke-width="2"/>
</g>
<g filter="url(#filter3_f_236_165)">
<path d="M216.1 363.348L51.7355 229.921L51.03 227.803L55.968 200.976L73.6037 190.387L78.5417 191.093L82.7742 186.857H84.8905L86.3014 187.563H93.3556L95.4719 186.151H107.464C111.979 190.669 116.4 187.563 118.046 185.445V181.915L133.565 174.856L142.03 168.502H148.379L152.611 161.442L149.084 157.207V155.795L151.906 151.559V148.029L154.728 146.617H165.309V143.087L167.425 139.558H186.472L189.294 141.675H194.232C195.407 141.911 197.194 141.534 194.937 138.146C194.373 136.451 194.702 136.028 194.937 136.028L198.464 133.91V132.498C198.464 131.933 193.761 126.615 191.41 124.026V117.673V114.143L192.821 110.613L190.704 108.495V106.377L191.41 104.965L192.115 103.553V102.141V94.3758L189.999 91.5519V86.6102L184.356 80.9625L185.061 80.2565H194.232C195.36 80.2565 204.108 73.6675 208.34 70.373C208.575 69.9024 209.469 68.9611 211.162 68.9611C213.278 68.9611 213.278 71.079 213.984 71.079C214.689 71.079 216.1 70.373 216.805 68.9611C217.37 67.8315 217.981 68.0198 218.216 68.2551L220.332 71.079H223.154C224.283 71.079 226.446 66.3725 227.387 64.0193L249.96 56.2537H263.363C263.599 56.2537 264.351 56.5361 265.48 57.6656C266.608 58.7952 267.831 58.6069 268.301 58.3716L276.766 54.1358H308.511C309.216 55.0771 311.05 57.1009 312.743 57.6656C314.436 58.2304 316.741 57.901 317.681 57.6656L321.208 55.5477H328.263L328.968 54.8418L333.906 52.0179L335.317 51.3118L340.96 54.8415L346.604 54.8418C347.074 53.9005 348.297 51.8766 349.425 51.3118C350.554 50.7471 352.247 51.0765 352.953 51.3118C355.069 53.1944 359.442 57.1007 360.007 57.6655C360.571 58.2303 363.064 56.0182 364.239 54.8415C366.497 54.2768 368.472 54.6062 369.177 54.8415C369.883 55.0769 371.576 55.6887 372.704 56.2535C373.833 56.8182 368.942 61.6659 366.356 64.0191L369.177 65.431V67.5489L368.472 68.2549L365.65 72.4907V79.5503L367.766 82.3742V86.61L366.356 90.8457V96.4935L363.534 101.435H362.123V102.847H357.89L355.774 104.259V107.083L350.836 109.907V119.084L351.542 120.496V124.732C356.621 126.426 361.653 131.086 363.534 133.204V140.969L372.704 148.029L374.821 152.265L376.232 152.971V155.089V157.912H377.642V161.442H379.053V162.854V166.384V170.62H380.464V174.856H381.875V177.679V181.915L379.759 184.739V188.269L388.929 208.036V223.567V231.333V239.804C388.929 244.746 388.224 243.334 386.813 248.276C385.684 252.229 386.813 256.983 387.518 258.865V267.337L381.17 272.985V278.632L388.224 289.928V299.811L391.751 303.341H393.162H398.1L403.743 307.577L410.092 308.989V313.225L415.03 323.108C386.578 339.816 329.673 373.514 329.673 374.644C329.673 375.773 313.213 387.822 304.984 393.705L254.193 405C251.371 400.482 253.017 391.822 254.193 388.057L243.611 381.703L238.673 383.821C238.109 377.609 229.033 375.114 224.565 374.644L223.859 371.114L216.805 369.702L216.1 368.29V363.348Z" stroke="#8B5CF6" style="mix-blend-mode:hard-light" stroke-width="2"/>
</g>
<path d="M216.1 363.348L51.7355 229.921L51.03 227.803L55.968 200.976L73.6037 190.387L78.5417 191.093L82.7742 186.857H84.8905L86.3014 187.563H93.3556L95.4719 186.151H107.464C111.979 190.669 116.4 187.563 118.046 185.445V181.915L133.565 174.856L142.03 168.502H148.379L152.611 161.442L149.084 157.207V155.795L151.906 151.559V148.029L154.728 146.617H165.309V143.087L167.425 139.558H186.472L189.294 141.675H194.232C195.407 141.911 197.194 141.534 194.937 138.146C194.373 136.451 194.702 136.028 194.937 136.028L198.464 133.91V132.498C198.464 131.933 193.761 126.615 191.41 124.026V117.673V114.143L192.821 110.613L190.704 108.495V106.377L191.41 104.965L192.115 103.553V102.141V94.3758L189.999 91.5519V86.6102L184.356 80.9625L185.061 80.2565H194.232C195.36 80.2565 204.108 73.6675 208.34 70.373C208.575 69.9024 209.469 68.9611 211.162 68.9611C213.278 68.9611 213.278 71.079 213.984 71.079C214.689 71.079 216.1 70.373 216.805 68.9611C217.37 67.8315 217.981 68.0198 218.216 68.2551L220.332 71.079H223.154C224.283 71.079 226.446 66.3725 227.387 64.0193L249.96 56.2537H263.363C263.599 56.2537 264.351 56.5361 265.48 57.6656C266.608 58.7952 267.831 58.6069 268.301 58.3716L276.766 54.1358H308.511C309.216 55.0771 311.05 57.1009 312.743 57.6656C314.436 58.2304 316.741 57.901 317.681 57.6656L321.208 55.5477H328.263L328.968 54.8418L333.906 52.0179L335.317 51.3118L340.96 54.8415L346.604 54.8418C347.074 53.9005 348.297 51.8766 349.425 51.3118C350.554 50.7471 352.247 51.0765 352.953 51.3118C355.069 53.1944 359.442 57.1007 360.007 57.6655C360.571 58.2303 363.064 56.0182 364.239 54.8415C366.497 54.2768 368.472 54.6062 369.177 54.8415C369.883 55.0769 371.576 55.6887 372.704 56.2535C373.833 56.8182 368.942 61.6659 366.356 64.0191L369.177 65.431V67.5489L368.472 68.2549L365.65 72.4907V79.5503L367.766 82.3742V86.61L366.356 90.8457V96.4935L363.534 101.435H362.123V102.847H357.89L355.774 104.259V107.083L350.836 109.907V119.084L351.542 120.496V124.732C356.621 126.426 361.653 131.086 363.534 133.204V140.969L372.704 148.029L374.821 152.265L376.232 152.971V155.089V157.912H377.642V161.442H379.053V162.854V166.384V170.62H380.464V174.856H381.875V177.679V181.915L379.759 184.739V188.269L388.929 208.036V223.567V231.333V239.804C388.929 244.746 388.224 243.334 386.813 248.276C385.684 252.229 386.813 256.983 387.518 258.865V267.337L381.17 272.985V278.632L388.224 289.928V299.811L391.751 303.341H393.162H398.1L403.743 307.577L410.092 308.989V313.225L415.03 323.108C386.578 339.816 329.673 373.514 329.673 374.644C329.673 375.773 313.213 387.822 304.984 393.705L254.193 405C251.371 400.482 253.017 391.822 254.193 388.057L243.611 381.703L238.673 383.821C238.109 377.609 229.033 375.114 224.565 374.644L223.859 371.114L216.805 369.702L216.1 368.29V363.348Z" stroke="#C5AEFB" style="mix-blend-mode:hard-light" stroke-width="2"/>
<defs>
<filter id="filter0_f_236_165" x="-3.8147e-06" y="0" width="466.342" height="456.13" filterUnits="userSpaceOnUse" color-interpolation-filters="sRGB">
<feFlood flood-opacity="0" result="BackgroundImageFix"/>
<feBlend mode="normal" in="SourceGraphic" in2="BackgroundImageFix" result="shape"/>
<feGaussianBlur stdDeviation="25" result="effect1_foregroundBlur_236_165"/>
</filter>
<filter id="filter1_f_236_165" x="25" y="25" width="416.342" height="406.13" filterUnits="userSpaceOnUse" color-interpolation-filters="sRGB">
<feFlood flood-opacity="0" result="BackgroundImageFix"/>
<feBlend mode="normal" in="SourceGraphic" in2="BackgroundImageFix" result="shape"/>
<feGaussianBlur stdDeviation="12.5" result="effect1_foregroundBlur_236_165"/>
</filter>
<filter id="filter2_f_236_165" x="35" y="35" width="396.342" height="386.13" filterUnits="userSpaceOnUse" color-interpolation-filters="sRGB">
<feFlood flood-opacity="0" result="BackgroundImageFix"/>
<feBlend mode="normal" in="SourceGraphic" in2="BackgroundImageFix" result="shape"/>
<feGaussianBlur stdDeviation="7.5" result="effect1_foregroundBlur_236_165"/>
</filter>
<filter id="filter3_f_236_165" x="40" y="40" width="386.342" height="376.13" filterUnits="userSpaceOnUse" color-interpolation-filters="sRGB">
<feFlood flood-opacity="0" result="BackgroundImageFix"/>
<feBlend mode="normal" in="SourceGraphic" in2="BackgroundImageFix" result="shape"/>
<feGaussianBlur stdDeviation="5" result="effect1_foregroundBlur_236_165"/>
</filter>
</defs>
</svg>
